<svg width="14" height="14" viewBox="0 0 279 279" fill="#fff" xmlns="http://www.w3.org/2000/svg">
<path fill-rule="evenodd" clip-rule="evenodd" d="M0 158.159V120.486C0 110.889 7.81981 103.07 17.771 103.07H103.07V17.771C103.07 7.81981 110.89 0 120.486 0H158.159C168.11 0 175.93 7.81981 175.93 17.771V103.07H261.229C270.825 103.07 279 110.89 279 120.486V158.159C279 168.11 270.825 175.93 261.229 175.93H175.93V261.229C175.93 270.825 168.11 279 158.159 279H120.486C110.889 279 103.07 270.825 103.07 261.229V175.93H17.771C7.81981 175.93 0 168.11 0 158.159V158.159Z" />
</svg>
