<svg width="16" height="20" viewBox="0 0 467 514" fill="none" xmlns="http://www.w3.org/2000/svg">
<path d="M443.329 93.3359H349.997V23.3359C349.997 17.1445 347.536 11.2109 343.161 6.8359C338.786 2.4609 332.852 0 326.661 0H140.001C133.809 0 127.876 2.4609 123.501 6.8359C119.126 11.2109 116.665 17.1449 116.665 23.3359V93.3359H23.333C14.9971 93.3359 7.294 97.7812 3.126 105C-1.042 112.219 -1.042 121.117 3.126 128.336C7.294 135.555 14.997 140 23.333 140H48.079L70.048 491.46C70.4191 497.382 73.0324 502.944 77.3605 507.007C81.6847 511.069 87.3955 513.335 93.3335 513.335H373.333C379.271 513.335 384.981 511.069 389.306 507.007C393.635 502.944 396.248 497.382 396.619 491.46L418.588 140H443.334C451.67 140 459.373 135.555 463.541 128.336C467.709 121.117 467.709 112.219 463.541 105C459.373 97.7809 451.67 93.3359 443.334 93.3359H443.329ZM163.329 46.6679H303.329V93.3359H163.329V46.6679ZM351.409 466.668H115.249L94.8308 139.998H371.821L351.409 466.668Z" fill="white"/>
<path d="M163.329 186.666C157.141 186.666 151.204 189.123 146.829 193.502C142.454 197.877 139.997 203.811 139.997 209.998V396.668C139.997 405.004 144.442 412.707 151.661 416.875C158.88 421.043 167.778 421.043 174.997 416.875C182.216 412.707 186.661 405.004 186.661 396.668V209.998C186.661 203.81 184.204 197.877 179.829 193.502C175.454 189.123 169.517 186.666 163.329 186.666V186.666Z" fill="white"/>
<path d="M233.329 186.666C227.141 186.666 221.204 189.123 216.829 193.502C212.454 197.877 209.997 203.811 209.997 209.998V396.668C209.997 405.004 214.442 412.707 221.661 416.875C228.88 421.043 237.778 421.043 244.997 416.875C252.216 412.707 256.661 405.004 256.661 396.668V209.998C256.661 203.81 254.204 197.877 249.829 193.502C245.454 189.123 239.517 186.666 233.329 186.666V186.666Z" fill="white"/>
<path d="M303.329 186.666C297.141 186.666 291.204 189.123 286.829 193.502C282.454 197.877 279.997 203.811 279.997 209.998V396.668C279.997 405.004 284.442 412.707 291.661 416.875C298.88 421.043 307.778 421.043 314.997 416.875C322.216 412.707 326.661 405.004 326.661 396.668V209.998C326.661 203.81 324.204 197.877 319.829 193.502C315.454 189.123 309.517 186.666 303.329 186.666V186.666Z" fill="white"/>
</svg>
